<?xml version="1.0" standalone="no"?>
<!DOCTYPE svg PUBLIC "-//W3C//DTD SVG 1.0//EN" "http://www.w3.org/TR/2001/REC-SVG-20010904/DTD/svg10.dtd">
<svg xmlns="http://www.w3.org/2000/svg" xmlns:xlink="http://www.w3.org/1999/xlink" id="body_1" width="16" height="16">

<g transform="matrix(0.4444445 0 0 0.4444445 0 0)">
	<g transform="matrix(0.9951898 0 0 0.9951898 0 0)">
	</g>
    <path transform="matrix(0.9951898 0 0 0.9951898 0 0)"  d="M23.921 20.528C 23.921 23.745 21.304 26.362 18.087 26.362C 14.87 26.362 12.254 23.745 12.254 20.528C 12.254 17.311 14.87 14.694 18.087 14.694C 21.304 14.694 23.921 17.312 23.921 20.528zM36.174 12.244L36.174 28.814C 36.174 31.023 34.383 32.814 32.174 32.814L32.174 32.814L4 32.814C 1.791 32.814 0 31.023 0 28.814L0 28.814L0 12.244C 0 10.035 1.791 8.243999 4 8.243999L4 8.243999L8.92 8.243999L8.92 6.86C 8.92 4.927 10.486 3.36 12.42 3.36L12.42 3.36L23.754 3.36C 25.688 3.36 27.254 4.927 27.254 6.86L27.254 6.86L27.254 8.243L32.174 8.243C 34.383 8.244 36.174 10.035 36.174 12.244zM26.921 20.528C 26.921 15.657 22.958 11.694 18.087 11.694C 13.217 11.694 9.254 15.657 9.254 20.528C 9.254 25.399 13.217 29.362 18.087 29.362C 22.958 29.362 26.921 25.399 26.921 20.528z" stroke="none" fill="#000000" fill-rule="nonzero" />
</g>
</svg>