<svg xmlns="http://www.w3.org/2000/svg" id="Layer_1" enable-background="new 0 0 511.789 511.789" height="512" viewBox="0 0 511.789 511.789" width="512"><path d="m491.895 235.895h-21.925c-7.367-100.115-93.964-186.709-194.075-194.076v-21.924c-1.056-26.536-38.953-26.516-40 0v21.924c-100.114 7.367-186.709 93.964-194.076 194.076h-21.924c-26.536 1.056-26.516 38.953 0 40h21.924c4.571 49.878 26.191 96.172 62.047 132.028s82.15 57.476 132.028 62.047v21.924c1.056 26.536 38.953 26.516 40 0v-21.924c49.878-4.572 96.172-26.192 132.028-62.047 35.856-35.857 57.476-82.15 62.047-132.028h21.924c26.538-1.057 26.517-38.954.002-40zm-236 195c-96.495 0-175-78.505-175-175 9.613-232.161 340.422-232.094 350 .001 0 96.494-78.505 174.999-175 174.999zm0-115c-33.084 0-60-26.916-60-60 3.296-79.598 116.716-79.575 120 0 0 33.084-26.916 60-60 60zm0-80c-11.028 0-20 8.972-20 20 1.098 26.533 38.906 26.525 40 0 0-11.028-8.972-20-20-20z"/></svg>