<?xml version="1.0" standalone="no"?>
<!DOCTYPE svg PUBLIC "-//W3C//DTD SVG 1.0//EN" "http://www.w3.org/TR/2001/REC-SVG-20010904/DTD/svg10.dtd">
<svg xmlns="http://www.w3.org/2000/svg" xmlns:xlink="http://www.w3.org/1999/xlink" id="body_1" width="30" height="30">

<g transform="matrix(0.01674107 0 0 0.01674107 0 0)">
	<g transform="matrix(1 0 0 1 0 0)">
	</g>
    <path transform="matrix(1 0 0 1 0 0)"  d="M1664 1504L1664 736C 1642.667 760 1619.667 782 1595 802C 1570.333 822 1541.5 838.1667 1508.5 850.5L1508.5 850.5L1506.5 850.5C 1474.5 850.5 1440.333 842.3334 1404 826C 1367.667 809.6667 1338.833 793.5001 1317.5 777.5C 1212.167 689.5 1070.167 576.8334 891.5 439.5L891.5 439.5L891.5 1207.5C 891.5001 1216.167 894.6667 1223.667 901 1230C 907.3334 1236.333 914.8334 1239.5 923.5 1239.5L923.5 1239.5L2395.5 1239.5C 2404.167 1239.5 2411.667 1236.333 2418 1230C 2424.333 1223.667 2427.5 1216.167 2427.5 1207.5L2427.5 1207.5L1664 1504zM1664 453L1664 428.5L1663.5 415.5L1660.5 403L1655 394L1646 386.5L1632 384L160 384C 151.3333 384 143.8333 387.1667 137.5 393.5C 131.1667 399.8334 128 407.3334 128 416C 128 528 177 622.6667 275 700C 373 777.3334 388.3333 789.8334 321 737.5L321 737.5L323 737.5C 336.3333 737.5 350.6667 734.5 366 728.5C 381.3333 722.5 398.1667 713.3334 416.5 701C 555.1667 591 688.8334 485.3333 817.5 384C 946.1667 282.6667 961.6667 238.8333 864 252.5zM1792 416L1792 1504C 1792 1548 1776.333 1585.667 1745 1617C 1713.667 1648.333 1676 1664 1632 1664L1632 1664L160 1664C 116 1664 78.33334 1648.333 47 1617C 15.66667 1585.667 0 1548 0 1504L0 1504L0 416C 0 372 15.66667 334.3333 47 303C 78.33334 271.6667 116 256 160 256L160 256L1632 256C 1676 256 1713.667 271.6667 1745 303C 1776.333 334.3333 1792 372 1792 416z" stroke="none" fill="#000000" fill-rule="nonzero" />
</g>
</svg>