<?xml version="1.0" standalone="no"?>
<!DOCTYPE svg PUBLIC "-//W3C//DTD SVG 1.0//EN" "http://www.w3.org/TR/2001/REC-SVG-20010904/DTD/svg10.dtd">
<svg xmlns="http://www.w3.org/2000/svg" xmlns:xlink="http://www.w3.org/1999/xlink" id="body_1" width="30" height="22">

<g transform="matrix(0.02929688 0 0 0.02864583 0 0)">
	<g transform="matrix(1.5 0 0 1.5 128 0)">
	</g>
    <path transform="matrix(1.5 0 0 1.5 128 0)"  d="M390 346C 390 340.4772 388.0474 335.7631 384.1422 331.8578C 380.2369 327.9526 375.5229 326 370 326C 364.4772 326 359.7631 327.9526 355.8578 331.8578C 351.9526 335.7631 350 340.4772 350 346C 350 351.5229 351.9526 356.2369 355.8578 360.1422C 359.7631 364.0474 364.4772 366 370 366C 375.5229 366 380.2369 364.0474 384.1422 360.1422C 388.0474 356.2369 390 351.5229 390 346" stroke="none" fill="#000000" fill-rule="nonzero" />
	<g transform="matrix(1.5 0 0 1.5 128 0)">
	</g>
    <path transform="matrix(1.5 0 0 1.5 128 0)"  d="M460 362C 471.046 362 480 353.046 480 342L480 342L480 268C 480 223.888 444.112 188 400 188L400 188L375.963 188L375.963 117.466C 375.963 52.695 322.131 0 255.963 0C 189.795 0 135.963 52.695 135.963 117.466L135.963 117.466L135.963 188L112 188C 67.888 188 32 223.888 32 268L32 268L32 432C 32 476.112 67.888 512 112 512L112 512L400 512C 444.112 512 480 476.112 480 432C 480 420.954 471.046 412 460 412C 448.954 412 440 420.954 440 432C 440 454.056 422.056 472 400 472L400 472L112 472C 89.944 472 72 454.056 72 432L72 432L72 268C 72 245.944 89.944 228 112 228L112 228L400 228C 422.056 228 440 245.944 440 268L440 268L440 342C 440 353.046 448.954 362 460 362zM335.963 188L175.963 188L175.963 117.466C 175.963 74.75101 211.851 40 255.963 40C 300.075 40 335.963 74.751 335.963 117.466L335.963 117.466L335.963 188z" stroke="none" fill="#000000" fill-rule="nonzero" />
	<g transform="matrix(1.5 0 0 1.5 128 0)">
	</g>
    <path transform="matrix(1.5 0 0 1.5 128 0)"  d="M239 346C 239 340.4772 237.0474 335.7631 233.1421 331.8578C 229.2369 327.9526 224.5229 326 219 326C 213.4772 326 208.7631 327.9526 204.8579 331.8578C 200.9526 335.7631 199 340.4772 199 346C 199 351.5229 200.9526 356.2369 204.8579 360.1422C 208.7631 364.0474 213.4772 366 219 366C 224.5229 366 229.2369 364.0474 233.1421 360.1422C 237.0474 356.2369 239 351.5229 239 346" stroke="none" fill="#000000" fill-rule="nonzero" />
	<g transform="matrix(1.5 0 0 1.5 128 0)">
	</g>
    <path transform="matrix(1.5 0 0 1.5 128 0)"  d="M164 346C 164 340.4772 162.0474 335.7631 158.1421 331.8578C 154.2369 327.9526 149.5229 326 144 326C 138.4772 326 133.7631 327.9526 129.8579 331.8578C 125.9526 335.7631 124 340.4772 124 346C 124 351.5229 125.9526 356.2369 129.8579 360.1422C 133.7631 364.0474 138.4772 366 144 366C 149.5229 366 154.2369 364.0474 158.1421 360.1422C 162.0474 356.2369 164 351.5229 164 346" stroke="none" fill="#000000" fill-rule="nonzero" />
	<g transform="matrix(1.5 0 0 1.5 128 0)">
	</g>
    <path transform="matrix(1.5 0 0 1.5 128 0)"  d="M314 346C 314 340.4772 312.0474 335.7631 308.1422 331.8578C 304.2369 327.9526 299.5229 326 294 326C 288.4772 326 283.7631 327.9526 279.8578 331.8578C 275.9526 335.7631 274 340.4772 274 346C 274 351.5229 275.9526 356.2369 279.8578 360.1422C 283.7631 364.0474 288.4772 366 294 366C 299.5229 366 304.2369 364.0474 308.1422 360.1422C 312.0474 356.2369 314 351.5229 314 346" stroke="none" fill="#000000" fill-rule="nonzero" />
</g>
</svg>